<svg width="25" height="36" viewBox="0 0 25 36" fill="none" xmlns="http://www.w3.org/2000/svg">
<path fill-rule="evenodd" clip-rule="evenodd" d="M6.84186 0.00167641C5.39008 0.000600394 3.97564 0.461694 2.80342 1.31817C1.63119 2.17465 0.762041 3.38205 0.321848 4.76549C-0.118345 6.14892 -0.106724 7.63657 0.355027 9.01296C0.816779 10.3894 1.70469 11.583 2.89015 12.4211C1.9978 13.0526 1.27005 13.8891 0.768019 14.8602C0.26599 15.8314 0.00434638 16.9088 0.00506754 18.002C0.00506754 20.3061 1.14537 22.3456 2.8935 23.583C1.93583 24.2609 1.16875 25.1738 0.666041 26.234C0.163336 27.2942 -0.0580672 28.4659 0.0231339 29.6364C0.104335 30.8069 0.485407 31.9368 1.12969 32.9174C1.77396 33.898 2.65977 34.6962 3.70186 35.2354C4.74396 35.7746 5.90728 36.0365 7.07989 35.9959C8.2525 35.9553 9.39494 35.6137 10.3973 35.0038C11.3996 34.3939 12.2282 33.5363 12.8031 32.5136C13.3781 31.4908 13.6802 30.3372 13.6803 29.1639V23.2967C14.3916 23.8729 15.2113 24.3004 16.0909 24.5539C16.9705 24.8074 17.8921 24.8816 18.8009 24.7722C19.7097 24.6629 20.5873 24.3721 21.3817 23.9172C22.176 23.4623 22.8709 22.8525 23.4252 22.1239C23.9794 21.3954 24.3817 20.563 24.6082 19.6761C24.8347 18.7891 24.8808 17.8658 24.7437 16.9607C24.6067 16.0556 24.2892 15.1873 23.8103 14.4072C23.3313 13.6271 22.7006 12.9512 21.9555 12.4194C23.1409 11.5814 24.0288 10.3877 24.4906 9.01129C24.9523 7.6349 24.964 6.14725 24.5238 4.76381C24.0836 3.38038 23.2144 2.17298 22.0422 1.3165C20.87 0.46002 19.4555 -0.00107414 18.0038 1.87897e-06L6.84186 0.00167641ZM11.167 22.3271H6.84186C6.27387 22.3271 5.71145 22.2153 5.18671 21.9979C4.66196 21.7806 4.18516 21.462 3.78354 21.0604C3.38192 20.6587 3.06333 20.1819 2.84597 19.6572C2.62862 19.1324 2.51675 18.57 2.51675 18.002C2.51675 17.4341 2.62862 16.8716 2.84597 16.3469C3.06333 15.8221 3.38192 15.3453 3.78354 14.9437C4.18516 14.5421 4.66196 14.2235 5.18671 14.0062C5.71145 13.7888 6.27387 13.6769 6.84186 13.6769H11.167V22.3271ZM6.84186 11.1652H11.167V2.51335H6.84186C5.69454 2.51335 4.59422 2.96912 3.78295 3.7804C2.97168 4.59167 2.51591 5.69199 2.51591 6.8393C2.51591 7.98661 2.97168 9.08694 3.78295 9.89821C4.59422 10.7095 5.69454 11.1652 6.84186 11.1652ZM22.3305 6.83847C22.331 7.98498 21.8762 9.08475 21.0661 9.89609C20.256 10.7074 19.157 11.1639 18.0105 11.1652H13.6786V2.51335H18.0054C18.5734 2.51335 19.1358 2.62523 19.6606 2.84258C20.1853 3.05994 20.6621 3.37853 21.0637 3.78015C21.4654 4.18177 21.784 4.65857 22.0013 5.18332C22.2187 5.70806 22.3305 6.27048 22.3305 6.83847ZM13.6786 17.997C13.68 16.8517 14.1356 15.7536 14.9454 14.9437C15.7553 14.1338 16.8534 13.6783 17.9987 13.6769H18.0088C18.8638 13.6779 19.6993 13.9323 20.4098 14.4079C21.1203 14.8836 21.6739 15.5591 22.0006 16.3492C22.3273 17.1393 22.4126 18.0085 22.2455 18.8471C22.0785 19.6856 21.6666 20.4558 21.0621 21.0604C20.4575 21.6649 19.6873 22.0767 18.8488 22.2438C18.0103 22.4108 17.141 22.3256 16.3509 21.9989C15.5608 21.6721 14.8853 21.1186 14.4096 20.4081C13.934 19.6976 13.6796 18.8621 13.6786 18.0071V17.997ZM6.84186 24.8388C5.9865 24.8388 5.15035 25.0924 4.43913 25.5676C3.7279 26.0428 3.17354 26.7182 2.84614 27.5084C2.51873 28.2986 2.43298 29.1682 2.59973 30.0071C2.76648 30.8461 3.17824 31.6167 3.78295 32.2217C4.38766 32.8266 5.15816 33.2387 5.99704 33.4057C6.83592 33.5728 7.7055 33.4874 8.49584 33.1603C9.28618 32.8332 9.96179 32.2791 10.4372 31.5681C10.9127 30.857 11.1666 30.021 11.167 29.1656V24.8388H6.84186Z" fill="#247BFF"/>
</svg>
