<svg width="36" height="36" viewBox="0 0 36 36" fill="none" xmlns="http://www.w3.org/2000/svg">
<path d="M6 0C4.4087 0 2.88258 0.632141 1.75736 1.75736C0.632141 2.88258 0 4.4087 0 6V30C0 31.5913 0.632141 33.1174 1.75736 34.2426C2.88258 35.3679 4.4087 36 6 36H30C31.5913 36 33.1174 35.3679 34.2426 34.2426C35.3679 33.1174 36 31.5913 36 30V6C36 4.4087 35.3679 2.88258 34.2426 1.75736C33.1174 0.632141 31.5913 0 30 0H6ZM20.668 26.11C22.108 27.27 23.5453 27.842 24.98 27.826C25.86 27.826 26.5347 27.6647 27.004 27.342C27.2225 27.2001 27.4003 27.0038 27.5199 26.7724C27.6395 26.5409 27.6967 26.2823 27.686 26.022C27.689 25.7381 27.6297 25.4569 27.5122 25.1984C27.3947 24.94 27.2219 24.7104 27.006 24.526C26.5367 24.1167 25.6487 23.706 24.342 23.294C22.7727 22.8407 21.5627 22.254 20.712 21.534C19.8773 20.814 19.452 19.8093 19.436 18.52C19.436 17.3027 19.964 16.2833 21.02 15.462C22.0467 14.6407 23.36 14.23 24.96 14.23C27.1893 14.23 28.978 14.7727 30.326 15.858L28.786 18.256C28.2315 17.8249 27.5953 17.5105 26.916 17.332C26.3055 17.1275 25.6677 17.0162 25.024 17.002C24.264 17.002 23.6553 17.1413 23.198 17.42C22.7447 17.7 22.518 18.0667 22.518 18.52C22.518 19.0187 22.796 19.444 23.352 19.796C23.912 20.1347 24.8653 20.5087 26.212 20.918C27.84 21.402 28.9987 22.0473 29.688 22.854C30.3773 23.6607 30.722 24.6873 30.722 25.934C30.722 27.21 30.2307 28.31 29.248 29.234C28.28 30.1433 26.872 30.62 25.024 30.664C22.604 30.664 20.58 29.938 18.952 28.486L20.668 26.11ZM9.608 27.386C10.0773 27.6793 10.642 27.826 11.302 27.826C11.9913 27.826 12.5633 27.628 13.018 27.232C13.4713 26.8213 13.6987 26.11 13.7 25.098V14.494H16.67V25.67C16.626 27.4007 16.1273 28.6473 15.174 29.41C14.6524 29.851 14.0459 30.1804 13.392 30.378C12.7856 30.5626 12.1558 30.659 11.522 30.664C10.422 30.664 9.44667 30.4733 8.596 30.092C7.68667 29.6827 6.924 28.9567 6.308 27.914L8.376 26.22C8.756 26.7333 9.16667 27.122 9.608 27.386Z" fill="#247BFF"/>
</svg>
