<svg width="48" height="36" viewBox="0 0 48 36" fill="none" xmlns="http://www.w3.org/2000/svg">
<path fill-rule="evenodd" clip-rule="evenodd" d="M0 14.9022C0 15.1698 0.0787812 15.3464 0.122929 15.518C0.410652 16.6343 1.0291 17.5922 1.76287 18.466C2.80796 19.7113 4.08787 20.7138 5.39899 21.6565C6.53618 22.474 7.69658 23.2732 8.83834 24.0846C9.03434 24.2239 9.21969 24.3841 9.43243 24.555C9.24937 24.654 9.09714 24.7411 8.93881 24.8214C7.43208 25.5856 5.98243 26.4423 4.64619 27.4802C3.84087 28.1059 3.06219 28.7707 2.51225 29.6396C1.62738 31.0371 1.31416 32.526 1.97372 34.1157C2.16629 34.58 2.46011 34.9811 2.87456 35.2776C3.00891 35.3735 3.15962 35.4687 3.3168 35.506C3.71946 35.6007 4.12973 35.6628 4.53734 35.7378L5.69166 35.737C6.96814 35.6232 8.13007 35.1859 9.18011 34.4613C10.8212 33.3286 11.9268 31.8101 12.4021 29.8611C12.7477 28.4446 12.7618 27.0265 12.3546 25.6165C12.3154 25.4859 12.2705 25.3571 12.2198 25.2305C12.1704 25.1038 12.1121 24.9805 12.0436 24.8226L14.6605 23.3177L14.6997 23.3512C14.6522 23.5069 14.6015 23.6621 14.5585 23.8193C14.2476 24.955 14.0409 26.1105 14.1152 27.2891C14.1943 28.5451 14.5448 29.7207 15.2801 30.77C15.8746 31.6187 17.2911 31.6503 17.9229 30.7985C18.1471 30.4959 18.3644 30.1797 18.5277 29.8421C18.9543 28.961 19.3494 28.0644 19.757 27.1738L19.8281 27.0109C19.7988 27.4326 19.7646 27.8029 19.749 28.1736C19.7246 28.7525 19.7585 29.3279 19.9564 29.8786C20.1257 30.3498 20.4139 30.7018 20.9535 30.7639C21.3227 30.8061 21.6169 30.6371 21.8882 30.4229C22.3085 30.0905 22.6569 29.6763 22.9124 29.2054C23.6359 27.8768 24.3788 26.5561 25.0345 25.194C25.744 23.7208 26.3643 22.2045 27.0231 20.7061L27.1319 20.4405C27.2876 21.0521 27.3961 21.6511 27.5959 22.2182C27.828 22.8762 28.1154 23.5187 28.4282 24.1432C28.5763 24.4382 28.5591 24.6296 28.354 24.877C27.4954 25.9122 26.6516 26.9599 25.8071 28.0065C25.6203 28.2375 25.4342 28.4727 25.2785 28.7251C25.1841 28.8844 25.122 29.0608 25.0958 29.2442C25.0696 29.413 25.1098 29.5854 25.2079 29.7253C25.3061 29.8651 25.4545 29.9615 25.6222 29.9943C25.9606 30.067 26.3075 30.0917 26.6528 30.0678C27.8315 29.981 28.9017 29.5673 29.8478 28.8663C31.0737 27.9582 31.4672 26.719 31.1703 25.2503C31.09 24.8519 30.9481 24.4644 30.8099 24.0804C30.7479 23.9072 30.7437 23.7858 30.8567 23.6245C31.8367 22.2251 32.674 20.7404 33.4527 19.2215C33.4835 19.1617 33.5151 19.102 33.5692 19.038C33.8215 20.3511 34.2013 21.6165 34.8818 22.7647C34.5347 23.0993 34.191 23.4026 33.8801 23.7367C33.1954 24.4728 32.6017 25.272 32.2919 26.2467C32.1587 26.6669 32.0563 27.0939 32.1157 27.5426C32.2078 28.2395 32.7787 28.6923 33.4641 28.5336C34.9309 28.1942 36.1971 27.503 37.1223 26.2787C37.745 25.4543 37.8017 24.5348 37.541 23.5716C37.4694 23.3097 37.3845 23.0521 37.2932 22.7518C37.6551 22.6395 38.0079 22.5048 38.3729 22.4214C40.2679 21.9891 42.1422 22.0645 43.9683 22.7487C45.0343 23.1484 45.8956 23.817 46.4063 24.869C47.0301 26.155 46.6853 27.3751 45.4731 28.1881C45.3601 28.2638 45.2307 28.3236 45.1371 28.4183C45.1071 28.4531 45.0847 28.4937 45.0713 28.5376C45.0578 28.5815 45.0537 28.6277 45.0591 28.6733C45.067 28.7201 45.1907 28.7787 45.2619 28.778C45.6604 28.7749 45.9835 28.566 46.2937 28.3513C47.0708 27.8136 47.6379 27.0901 47.7601 26.1375L47.784 26.0659L47.7547 25.4456C47.7429 25.4098 47.7635 25.3744 47.7608 25.3474C47.5957 23.9601 46.8547 22.8842 45.7768 22.0409C44.5285 21.0647 43.0545 20.6628 41.4956 20.5992C40.2313 20.5448 38.9686 20.7391 37.7792 21.1712C37.4378 21.2949 37.0995 21.4414 36.7562 21.5796C36.7101 21.4962 36.6607 21.4163 36.6199 21.3337C36.2675 20.6121 35.8405 19.9225 35.7461 19.0951C35.6791 18.5075 35.5969 17.9206 35.7366 17.3395C35.871 16.7804 36.046 16.2308 36.2108 15.6794C36.2957 15.3954 36.2359 15.2364 35.965 15.1085C35.8703 15.0621 35.7696 15.0291 35.6658 15.0103C34.9998 14.9136 34.3429 14.9688 33.6978 15.1564C33.4695 15.223 33.3035 15.3509 33.2529 15.6036C33.224 15.7486 33.165 15.8875 33.1239 16.0306C32.9553 16.6255 32.8358 17.2318 32.5633 17.7985C31.8805 19.22 31.1011 20.5878 30.3034 21.9457C30.217 22.0922 30.126 22.2361 30.0172 22.4138C29.7371 21.8277 29.4383 21.3018 29.3477 20.6852C29.2453 19.988 29.1647 19.2919 29.3382 18.6C29.4672 18.0839 29.6358 17.5773 29.7911 17.0681C29.8646 16.8261 29.8307 16.699 29.6115 16.5715C29.5007 16.5071 29.3755 16.4501 29.2507 16.4314C28.5677 16.3273 27.8699 16.3844 27.213 16.5981C27.0064 16.6651 26.8979 16.7987 26.8347 17.0118C26.649 17.6405 26.4907 18.2845 26.23 18.8824C25.1742 21.3029 24.088 23.7109 23.003 26.1184C22.7765 26.6212 22.5113 27.1064 22.2559 27.5959C22.1912 27.72 22.0968 27.8292 22.0161 27.9456C21.9514 27.8691 21.9263 27.8166 21.9267 27.7641C21.9286 27.4547 21.8917 27.1361 21.9507 26.837C22.1318 25.9323 22.332 25.0315 22.5512 24.1352C22.7301 23.3946 22.9383 22.6608 23.1366 21.9252C23.2032 21.6789 23.2043 21.4487 23.0273 21.2416C22.7301 20.8949 22.109 20.8188 21.7406 21.086L21.5777 21.1781L21.6093 20.9155C21.6869 20.3526 21.7025 19.7916 21.548 19.2371C21.3554 18.5459 20.8622 18.1482 20.1452 18.1703C19.811 18.1806 19.4601 18.2377 19.1507 18.3594C17.8495 18.8694 16.8489 19.7726 15.9972 20.8591C15.9181 20.96 15.8203 21.0445 15.7091 21.108C14.608 21.7185 13.5036 22.3213 12.3995 22.9265L11.1706 23.5997C10.841 23.2854 10.5415 22.9592 10.2016 22.6825C9.16374 21.8361 8.10914 21.0106 7.06405 20.1737C6.1377 19.4319 5.24028 18.6594 4.55371 17.6771C4.04296 16.9463 3.71375 16.1467 3.68217 15.2432C3.6422 14.0919 3.96875 13.04 4.55485 12.0608C5.3046 10.8079 6.32724 9.80236 7.45149 8.89162C8.64082 7.92874 9.92719 7.11124 11.2604 6.36491C13.1256 5.32097 15.0442 4.39691 17.1012 3.78683C19.2104 3.16114 21.3505 2.80301 23.5579 3.05268C24.4256 3.15087 25.2682 3.34953 26.0419 3.77389C26.6345 4.09853 27.1205 4.52364 27.3466 5.18814C27.5696 5.84199 27.5628 6.50459 27.4083 7.16871C27.0943 8.5137 26.3578 9.62235 25.4311 10.613C23.9111 12.237 22.0568 13.3426 19.9693 14.0729C18.769 14.4933 17.5203 14.7597 16.2529 14.8657C15.2143 14.9528 14.1974 14.8607 13.2139 14.4996C12.5627 14.2602 11.9957 13.894 11.5397 13.3627C11.4583 13.2676 11.354 13.1645 11.2022 13.2535C11.0533 13.341 11.0271 13.4826 11.0769 13.6261C11.1603 13.8644 11.2372 14.1125 11.367 14.3256C11.6931 14.8603 12.1688 15.2482 12.6925 15.5808C13.6984 16.2206 14.8227 16.4356 15.9884 16.4854C17.7574 16.5619 19.4833 16.2978 21.1849 15.8232C23.6142 15.1458 25.7264 13.9492 27.4204 12.0615C28.8309 10.4897 29.8383 8.71579 30.0541 6.57385C30.1595 5.52839 30.0472 4.50423 29.5578 3.55048C29.0269 2.51719 28.1827 1.74879 27.1734 1.2194C25.7036 0.448711 24.1173 0 22.48 0H20.8397C18.8569 0 16.9399 0.568214 15.0765 1.24604C13.6661 1.75945 12.283 2.36534 10.9403 3.03593C8.01627 4.497 5.29318 6.25873 3.05648 8.68116C1.94213 9.888 0.998657 11.2197 0.455942 12.7877C0.292421 13.2559 0.151317 13.7317 0.033111 14.2134M10.6282 27.9194C10.5015 29.6164 9.73234 30.9922 8.47526 32.1066C7.76813 32.733 6.95711 33.1791 6.01249 33.3359C5.66996 33.3926 5.31945 33.4063 4.98719 33.2643C4.51336 33.0619 4.40718 32.6413 4.39805 32.1934C4.38397 31.4794 4.63401 30.8339 4.97692 30.2196C5.42449 29.4189 6.08062 28.8084 6.78127 28.2383C7.88497 27.3397 9.0823 26.5793 10.3085 25.8616L10.401 25.8235C10.5906 26.5238 10.6808 27.2153 10.6282 27.9194ZM20.203 20.544C20.1136 21.086 20.0017 21.6283 19.8434 22.1535C19.2961 23.9716 18.5931 25.7333 17.8331 27.4714C17.6927 27.793 17.4883 28.0865 17.3106 28.3913C17.2803 28.4381 17.2441 28.4809 17.2028 28.5184C16.9829 28.7357 16.7743 28.7243 16.6632 28.44C16.5338 28.1097 16.4542 27.7561 16.3857 27.4064C16.3397 27.1715 16.3507 26.9249 16.3363 26.6844C16.3511 24.974 16.8729 23.4197 17.7581 21.9727C18.1231 21.376 18.5204 20.8074 19.1275 20.4298C19.3164 20.3126 19.5207 20.2221 19.7345 20.1611C20.058 20.0702 20.2567 20.2198 20.203 20.544ZM26.7354 28.8667L29.0832 26.1253C29.181 27.1434 27.4505 29.1757 26.7354 28.8667ZM34.2341 27.022C34.0681 27.1171 33.8873 27.1856 33.7172 27.2735C33.5616 27.3542 33.5102 27.2728 33.5056 27.1388C33.5034 27.0461 33.5153 26.9535 33.541 26.8644C33.858 25.7462 34.4415 24.7917 35.3096 24.0153L35.3705 23.9841C35.7834 25.1392 35.3062 26.4077 34.2341 27.022Z" fill="#247BFF"/>
</svg>
