<svg width="34" height="34" viewBox="0 0 34 34" fill="none" xmlns="http://www.w3.org/2000/svg">
<path d="M17 0C7.633 0 0 7.633 0 17C0 26.367 7.633 34 17 34C26.367 34 34 26.367 34 17C34 7.633 26.367 0 17 0ZM1.717 17C1.717 14.79 2.193 12.682 3.043 10.778L10.336 30.753C5.236 28.271 1.717 23.052 1.717 17ZM17 32.283C15.504 32.283 14.059 32.062 12.682 31.654L17.272 18.326L21.964 31.195C21.998 31.263 22.032 31.348 22.066 31.399C20.485 31.977 18.785 32.283 17 32.283ZM19.108 9.826C20.026 9.775 20.859 9.673 20.859 9.673C21.675 9.571 21.59 8.364 20.757 8.415C20.757 8.415 18.275 8.602 16.677 8.602C15.181 8.602 12.648 8.415 12.648 8.415C11.832 8.381 11.73 9.639 12.563 9.69C12.563 9.69 13.345 9.792 14.161 9.843L16.541 16.371L13.192 26.401L7.633 9.826C8.551 9.792 9.384 9.69 9.384 9.69C10.2 9.588 10.115 8.381 9.282 8.432C9.282 8.432 6.8 8.619 5.202 8.619C4.913 8.619 4.573 8.619 4.216 8.602C6.97 4.454 11.662 1.717 17 1.717C20.978 1.717 24.599 3.23 27.319 5.729C27.251 5.729 27.183 5.712 27.115 5.712C25.619 5.712 24.548 7.021 24.548 8.432C24.548 9.69 25.279 10.761 26.044 12.019C26.622 13.039 27.302 14.348 27.302 16.235C27.302 17.544 26.792 19.057 26.146 21.182L24.616 26.282L19.108 9.826ZM30.413 9.673C32.3216 13.1678 32.7908 17.2694 31.7208 21.105C30.6508 24.9405 28.1261 28.2069 24.684 30.209L29.359 16.711C30.226 14.535 30.515 12.784 30.515 11.237C30.515 10.676 30.481 10.149 30.413 9.673Z" fill="#247BFF"/>
</svg>
